<svg width="162" height="43" viewBox="0 0 162 43" fill="none" xmlns="http://www.w3.org/2000/svg">
<g id="logo">
<g id="Group 2">
<path id="Shape" fill-rule="evenodd" clip-rule="evenodd" d="M104.065 22.3335V16.3947H107.059C107.433 16.3947 107.737 16.0912 107.737 15.7168V13.8606C107.737 13.4862 107.433 13.1826 107.059 13.1826H104.065V9.67815C104.065 9.60726 104.054 9.53682 104.032 9.46938C103.917 9.11314 103.535 8.91783 103.179 9.03313L100.235 9.98712C99.956 10.0776 99.7667 10.3381 99.7667 10.6321V22.4188C99.7667 24.2381 100.236 25.6499 101.176 26.6542C102.115 27.6586 103.476 28.1608 105.26 28.1608C105.789 28.1608 106.44 28.0715 107.212 27.893C107.519 27.822 107.737 27.5481 107.737 27.2324V25.245C107.737 25.2117 107.734 25.1784 107.729 25.1455C107.674 24.7751 107.33 24.5194 106.96 24.5744C106.684 24.6155 106.468 24.636 106.313 24.636C105.649 24.636 105.108 24.4513 104.691 24.0817C104.273 23.7122 104.065 23.1295 104.065 22.3335ZM127.848 18.8802C127.848 18.0903 127.538 16.1973 125.149 16.2376C124.867 16.2424 124.555 16.2387 124.214 16.2346C123.595 16.2273 122.88 16.2188 122.069 16.2578C121.64 16.2785 121.275 15.9466 121.254 15.5165C121.253 15.502 121.253 15.4874 121.253 15.4728L121.266 13.8245C121.27 13.4115 121.594 13.0727 122.006 13.0521C125.009 12.9025 126.917 12.9521 127.744 13.2047C128.243 13.3572 128.591 13.4848 128.862 13.6145C129.104 13.73 129.292 13.8491 129.495 14.0108C129.597 14.0918 129.644 14.1321 129.888 14.3457C131.011 15.3295 131.584 16.7065 131.604 18.4604L131.63 27.7288C131.631 28.1594 131.283 28.5095 130.853 28.5107L128.316 28.5107C127.886 28.5107 127.538 28.1616 127.538 27.731V27.1187C127.078 27.553 126.536 27.8986 125.913 28.1551C125.066 28.5042 124.097 28.6783 123.008 28.6783C121.93 28.6783 120.977 28.4685 120.151 28.0482C119.32 27.6249 118.676 27.0358 118.224 26.284C117.773 25.5336 117.547 24.6937 117.547 23.7694C117.547 22.2917 118.073 21.1196 119.119 20.2756C120.15 19.4428 121.595 19.0194 123.452 19.0002H127.848V18.8802ZM62.9806 17.1437C63.4742 17.5617 63.7192 18.1471 63.7192 18.9215V19.0197H59.7794C57.9639 19.0386 56.5504 19.454 55.5403 20.2717C54.5157 21.1012 54 22.2532 54 23.7044C54 24.612 54.2213 25.4371 54.6632 26.1741C55.106 26.9127 55.7369 27.4915 56.5509 27.9072C57.3589 28.3199 58.2916 28.5258 59.3463 28.5258C60.4114 28.5258 61.3592 28.355 62.1886 28.0124C62.7834 27.7668 63.3031 27.4376 63.7462 27.0255V27.5652C63.7462 28.0051 64.1024 28.3618 64.5418 28.3618H66.9818L66.984 28.3618C67.4234 28.3605 67.7786 28.0029 67.7774 27.5629L67.7518 18.5108C67.7328 16.7897 67.1719 15.4374 66.0712 14.4712C64.9783 13.5119 63.456 13.0343 61.5121 13.0343C60.2395 13.0343 59.125 13.1792 58.1676 13.4701C57.6182 13.637 56.7279 14.0267 55.4926 14.6402L55.4802 14.6465C55.09 14.8488 54.9375 15.3296 55.1396 15.7202L55.9542 17.295C56.1486 17.6707 56.6024 17.8287 56.9877 17.6548C58.694 16.8845 59.9435 16.5002 60.727 16.5002C61.7267 16.5002 62.4765 16.717 62.9806 17.1437ZM58.5314 22.1511C58.9474 21.8845 59.6315 21.7461 60.5712 21.7461H64.1567V22.8527C64.074 23.4885 63.688 24.0503 62.9932 24.5164C62.2768 24.9971 61.4142 25.2376 60.399 25.2376C59.6206 25.2376 59.0174 25.0633 58.5838 24.7189C58.1656 24.3868 57.9611 23.9471 57.9611 23.3757C57.9611 22.7931 58.1493 22.3959 58.5314 22.1511ZM122.053 22.3063C122.472 22.0377 123.159 21.8987 124.102 21.8987H127.704V23.0222C127.621 23.6653 127.232 24.2313 126.533 24.7C125.814 25.1826 124.948 25.4241 123.929 25.4241C123.147 25.4241 122.541 25.2487 122.104 24.9017C121.681 24.5663 121.475 24.1217 121.475 23.5452C121.475 22.9572 121.665 22.5544 122.053 22.3063ZM96.9778 14.1996V27.2554C96.9778 27.6298 96.6747 27.9334 96.3007 27.9334H93.4708C93.0968 27.9334 92.7936 27.6298 92.7936 27.2554V25.8299C92.3382 26.5879 91.7405 27.1659 91.0004 27.5638C90.2604 27.9618 89.4254 28.1608 88.4956 28.1608C86.6929 28.1608 85.3456 27.6586 84.4538 26.6542C83.5619 25.6499 83.116 24.1338 83.116 22.1061V14.1996C83.116 13.8252 83.4191 13.5216 83.7931 13.5216H86.7369C87.1109 13.5216 87.414 13.8252 87.414 14.1996V22.1914C87.414 23.9349 88.1635 24.8066 89.6626 24.8066C90.5545 24.8066 91.2756 24.5034 91.8259 23.897C92.3762 23.2905 92.6513 22.4946 92.6513 21.5092V14.1996C92.6513 13.8252 92.9545 13.5216 93.3284 13.5216H96.3007C96.6747 13.5216 96.9778 13.8252 96.9778 14.1996ZM118.133 13.1876H118.472C118.846 13.1876 119.149 13.4912 119.149 13.8656V15.5605C119.149 15.9349 118.846 16.2385 118.472 16.2385H118.133C115.983 16.2385 114.24 17.9838 114.24 20.1368L114.115 27.0578V27.2554C114.115 27.6298 113.812 27.9334 113.438 27.9334H110.64C110.266 27.9334 109.963 27.6298 109.963 27.2554V13.8606C109.963 13.4862 110.266 13.1826 110.64 13.1826H113.438C113.812 13.1826 114.115 13.4862 114.115 13.8606V14.4697C115.249 13.6623 116.636 13.1876 118.133 13.1876ZM148.271 19.4436C148.271 15.4072 146.563 13.389 143.147 13.389C142.104 13.389 141.169 13.6164 140.344 14.0712C139.518 14.526 138.849 15.1798 138.337 16.0325V14.4365C138.337 14.062 138.034 13.7585 137.66 13.7585H134.915C134.541 13.7585 134.238 14.062 134.238 14.4365V27.4923C134.238 27.8667 134.541 28.1703 134.915 28.1703H137.859C138.233 28.1703 138.536 27.8667 138.536 27.4923V20.0974C138.536 19.0741 138.821 18.2592 139.39 17.6528C139.959 17.0464 140.718 16.7432 141.667 16.7432C142.464 16.7432 143.048 16.9753 143.418 17.4396C143.788 17.9039 143.973 18.6382 143.973 19.6426V27.4923C143.973 27.8667 144.276 28.1703 144.65 28.1703H147.594C147.968 28.1703 148.271 27.8667 148.271 27.4923V19.4436ZM156.097 28.5112C154.504 28.5391 152.64 28.0601 150.506 27.0763C150.137 26.9065 149.955 26.4864 150.083 26.1011L150.641 24.4252C150.779 24.0078 151.23 23.782 151.647 23.9209C151.699 23.9382 151.748 23.9607 151.796 23.9882C152.471 24.3816 153.025 24.6479 153.455 24.7868C154.319 25.0661 155.198 25.1979 156.093 25.1822C156.766 25.1705 157.277 25.0505 157.626 24.8264C157.961 24.6111 158.121 24.3094 158.114 23.9075C158.108 23.5771 157.986 23.3248 157.745 23.1401C157.492 22.9461 157.032 22.7768 156.367 22.6374L154.144 22.1275C152.818 21.8374 151.832 21.3526 151.189 20.67C150.542 19.9839 150.209 19.0653 150.189 17.9203C150.173 16.9915 150.41 16.1548 150.9 15.4134C151.389 14.6738 152.077 14.0941 152.96 13.6751C153.841 13.2575 154.859 13.039 156.014 13.0188C156.988 13.0018 157.946 13.1461 158.889 13.4517C159.423 13.6247 160.107 13.9636 160.944 14.4684C161.27 14.6652 161.411 15.0656 161.28 15.4236L160.682 17.0661C160.532 17.4794 160.075 17.6923 159.662 17.5415C159.617 17.5251 159.574 17.5048 159.533 17.4806C158.931 17.1279 158.455 16.8896 158.107 16.7661C157.394 16.5137 156.708 16.3936 156.046 16.4051C155.41 16.4163 154.919 16.5446 154.571 16.7865C154.234 17.0209 154.072 17.3336 154.079 17.7367C154.085 18.0314 154.186 18.2624 154.386 18.4381C154.594 18.6204 154.976 18.7752 155.53 18.8963L157.809 19.4057C159.224 19.7329 160.259 20.2456 160.912 20.9476C161.568 21.6528 161.905 22.5999 161.926 23.7831C161.95 25.2055 161.438 26.3472 160.392 27.1974C159.351 28.0425 157.919 28.4794 156.097 28.5112ZM74.2279 17.7656C74.937 16.9956 75.8582 16.6117 77.0029 16.6117C77.6516 16.6117 78.5855 16.847 79.7979 17.3196C80.2118 17.481 80.6782 17.2832 80.8526 16.8724L81.5353 15.2649C81.6993 14.8787 81.5506 14.4301 81.189 14.2206C80.9212 14.0653 80.6965 13.9474 80.5139 13.8665C79.44 13.3905 78.2235 13.1529 76.8656 13.1529C75.3749 13.1529 74.053 13.4703 72.9025 14.106C71.7501 14.7428 70.8494 15.6428 70.2031 16.8037C69.5575 17.9632 69.2351 19.2987 69.2351 20.8075C69.2351 22.2978 69.5529 23.6194 70.1891 24.7696C70.8264 25.9216 71.7226 26.8172 72.8751 27.454C74.0255 28.0897 75.3382 28.4071 76.8107 28.4071C78.2613 28.4071 79.5386 28.1462 80.6413 27.6232C80.9388 27.4821 81.308 27.255 81.7507 26.9414C82.0873 26.7029 82.1973 26.2507 82.0082 25.8826L81.2711 24.4475C81.071 24.058 80.6042 23.8927 80.2059 24.0703C78.8092 24.6932 77.7388 25.0032 77.0029 25.0032C75.8582 25.0032 74.937 24.6193 74.2279 23.8493C73.5166 23.077 73.1602 22.0568 73.1602 20.78C73.1602 19.5401 73.5163 18.5382 74.2279 17.7656Z" fill="#0C1C66"/>
</g>
<g id="Rectangle">
<path id="Mask" fill-rule="evenodd" clip-rule="evenodd" d="M21.5 43C33.3741 43 43 33.3741 43 21.5C43 9.62588 33.3741 0 21.5 0C9.62588 0 0 9.62588 0 21.5C0 33.3741 9.62588 43 21.5 43Z" fill="white"/>
<mask id="mask0" mask-type="alpha" maskUnits="userSpaceOnUse" x="0" y="0" width="43" height="43">
<path id="Mask_2" fill-rule="evenodd" clip-rule="evenodd" d="M21.5 43C33.3741 43 43 33.3741 43 21.5C43 9.62588 33.3741 0 21.5 0C9.62588 0 0 9.62588 0 21.5C0 33.3741 9.62588 43 21.5 43Z" fill="white"/>
</mask>
<g mask="url(#mask0)">
<path id="Rectangle_2" fill-rule="evenodd" clip-rule="evenodd" d="M40.1826 -6.05676L34.4816 -11.7578L-10.4142 33.1379L-4.98141 38.4487L40.1826 -6.05676Z" fill="#B9D5F3"/>
<path id="Rectangle_3" fill-rule="evenodd" clip-rule="evenodd" d="M7.79102 -3.48303L1.63647 4.49265L17.2218 47.4802L27.5434 48.4303L7.79102 -3.48303Z" fill="url(#paint0_linear)"/>
<path id="Rectangle_4" fill-rule="evenodd" clip-rule="evenodd" d="M9.8739 41.975L3.8991 35.7858L43 4.39218L45.3736 14.1044L9.8739 41.975Z" fill="#FFC700"/>
<path id="Rectangle_5" fill-rule="evenodd" clip-rule="evenodd" d="M4.75928 1.67969L3.35924 9.6197L50.9993 18.0199L52.3994 10.0799L4.75928 1.67969Z" fill="url(#paint1_linear)"/>
<g id="Path 2">
<path id="Mask_3" fill-rule="evenodd" clip-rule="evenodd" d="M18.561 -3.48303L26.453 -0.610597L9.90776 44.847L2.01581 41.9746L18.561 -3.48303Z" fill="#0097E6"/>
<mask id="mask1" mask-type="alpha" maskUnits="userSpaceOnUse" x="2" y="-4" width="25" height="49">
<path id="Mask_4" fill-rule="evenodd" clip-rule="evenodd" d="M18.561 -3.48303L26.453 -0.610597L9.90776 44.847L2.01581 41.9746L18.561 -3.48303Z" fill="white"/>
</mask>
<g mask="url(#mask1)">
<path id="Path 2_2" opacity="0.2" fill-rule="evenodd" clip-rule="evenodd" d="M15.541 1.67968L21.836 18.149L24.467 11.6402L16.797 -4.74136L15.541 1.67968Z" fill="#124BA1"/>
<path id="Path 3" opacity="0.2" fill-rule="evenodd" clip-rule="evenodd" d="M4.70346 32.8444C5.9077 32.8444 19.0133 32.8444 19.0133 32.8444V30.286H4.09859C4.09859 30.286 3.49923 32.8444 4.70346 32.8444Z" fill="#124BA1"/>
</g>
</g>
<g id="Path 3_2">
<path id="Mask_5" fill-rule="evenodd" clip-rule="evenodd" d="M25.6562 -2.85106L17.1329 0.251171L33.6782 45.7088L42.2015 42.6066L25.6562 -2.85106Z" fill="#00B1FD"/>
<mask id="mask2" mask-type="alpha" maskUnits="userSpaceOnUse" x="17" y="-3" width="26" height="49">
<path id="Mask_6" fill-rule="evenodd" clip-rule="evenodd" d="M25.6562 -2.85106L17.1329 0.251171L33.6782 45.7088L42.2015 42.6066L25.6562 -2.85106Z" fill="white"/>
</mask>
<g mask="url(#mask2)">
<path id="Path 3_3" opacity="0.2" fill-rule="evenodd" clip-rule="evenodd" d="M25.6634 32.8444C26.8677 32.8444 39.9733 32.8444 39.9733 32.8444V30.286H25.0586C25.0586 30.286 24.4592 32.8444 25.6634 32.8444Z" fill="#0F53BC"/>
</g>
</g>
<path id="Rectangle_6" fill-rule="evenodd" clip-rule="evenodd" d="M-1.00781 22.8438L-1.00781 31.2422L47.3672 31.2422V22.8438L-1.00781 22.8438Z" fill="#00CFFD"/>
</g>
</g>
</g>
<defs>
<linearGradient id="paint0_linear" x1="3.63861" y1="-8.84004" x2="18.6483" y2="26.5206" gradientUnits="userSpaceOnUse">
<stop stop-color="#FFA900"/>
<stop offset="1" stop-color="#FF7000"/>
</linearGradient>
<linearGradient id="paint1_linear" x1="7.89713" y1="3.48452" x2="18.8088" y2="22.8259" gradientUnits="userSpaceOnUse">
<stop stop-color="#BCEF07"/>
<stop offset="1" stop-color="#91D300"/>
</linearGradient>
</defs>
</svg>
